<svg xmlns="http://www.w3.org/2000/svg" width="1200" height="720" viewBox="0 0 1200 720" role="img" aria-labelledby="title">
  <title id="title">Abstract street map placeholder</title>
  <rect width="1200" height="720" fill="#F7F7F7"/>
  <path d="M-70 520 C180 430 290 515 470 460 C655 404 730 280 930 312 C1050 331 1150 278 1275 242" fill="none" stroke="#D6D6D6" stroke-width="28" stroke-linecap="round"/>
  <path d="M60 120 C250 210 355 160 505 230 C675 310 780 280 980 385 C1072 433 1150 440 1240 420" fill="none" stroke="#FFFFFF" stroke-width="34" stroke-linecap="round"/>
  <path d="M80 120 C260 205 365 162 510 231 C678 311 790 286 980 385 C1072 433 1150 440 1240 420" fill="none" stroke="#DADADA" stroke-width="12" stroke-linecap="round"/>
  <path d="M250 -40 L330 760 M520 -30 L430 760 M760 -20 L840 760 M1010 -40 L910 760" stroke="#E3E3E3" stroke-width="18"/>
  <path d="M-30 220 L1250 120 M-20 360 L1240 540 M-60 665 L1250 610" stroke="#FFFFFF" stroke-width="26"/>
  <path d="M-30 220 L1250 120 M-20 360 L1240 540 M-60 665 L1250 610" stroke="#DADADA" stroke-width="10"/>
  <circle cx="290" cy="355" r="32" fill="#FF385C"/>
  <circle cx="290" cy="355" r="12" fill="#FFFFFF"/>
  <circle cx="820" cy="285" r="28" fill="#FF385C"/>
  <circle cx="820" cy="285" r="10" fill="#FFFFFF"/>
  <circle cx="950" cy="505" r="24" fill="#FF385C"/>
  <circle cx="950" cy="505" r="9" fill="#FFFFFF"/>
</svg>
